<?xml version="1.0" encoding="utf-8"?>
<!-- Generator: Adobe Illustrator 25.0.0, SVG Export Plug-In . SVG Version: 6.00 Build 0)  -->
<svg version="1.1" id="图层_1" xmlns="http://www.w3.org/2000/svg" xmlns:xlink="http://www.w3.org/1999/xlink" x="0px" y="0px"
	 viewBox="0 0 891.7 891.7" style="enable-background:new 0 0 891.7 891.7;" xml:space="preserve">
<style type="text/css">
	.st0{fill:#F5F7FA;}
	.st1{fill:#FFFFFF;}
</style>
<path class="st0" d="M444.7,178.4h-69.5h-197c-12.9,0-23.3,5-32.2,14.4c-10.9,11.5-11.2,25.7-11,39.8c0.5,25.9,0,51.8,0.1,77.8
	c0.1,18.9,0.2,37.9-0.2,56.8c-0.4,18,0.4,36.1,0.4,54.2c0,22.1,0,44.2-0.4,66.3c-0.4,19.1,0.4,38.2,0.4,57.3
	c0,6.8-0.6,13.7,0.8,20.4c4.3,21.4,21.3,34.9,43.7,34.9c61.7,0,123.3,0,185-0.1c5,0,6.7,1.4,6.6,6.5c-0.3,12.8-0.3,25.7,0,38.5
	c0.1,4.8-1.6,6.4-6.3,6.3c-14.3-0.2-28.7-0.1-43,0c-9.4,0.1-17.8,2.4-23.8,10.4c-4.1,5.4-6.3,11.9-6.3,18.6
	c-0.4,16.2,5.1,30.5,26.8,30.1c48.2-0.8,96.3-0.2,144.5-0.2c27.3,0,54.7,0,82,0c7,0,12.7-2.5,16.8-8.2c7.1-10,6.9-30-0.3-39.9
	c-5.9-8.3-14.4-10.8-24-10.8c-46.2,0-92.3,0-138.5,0c-6.6,0-6.8-0.2-6.8-6.6c0-10.5,0-21,0-31.5c0-13,0-13,13-13
	c23.2,0,46.3,0,69.5-0.1c6.5,0,10.2-3.7,10.4-9.7c0.1-6.2-4.1-10.8-10.4-11.1c-2.8-0.1-5.7-0.1-8.5-0.1h-285
	c-15.1,0-25.2-9.5-25.3-24.2c-0.2-19.8,0-39.6,0-59.5c0-41,0-82,0.1-123c0-49-0.2-98,0-146.9c0.1-17.4,9.7-26.5,27.3-26.6
	c40.2,0,80.3,0,120.5,0c134,0,268,0,402,0c19,0,28.8,9.2,28.8,27.2c0.1,41.3,0,82.6,0,124c0,38.3,0,76.7-0.1,115
	c0,3.5,0.1,7,1.3,10.4c1.8,4.8,5.4,6.9,11.1,6.6c5.1-0.3,7.7-3.1,9-7.9c1-3.7,0-7.2,0-10.9c0.1-40,0.1-80,0.1-120.1
	c0-23.1,0-46.1,0-69.2c0-11.9,1-23.9,0.4-35.7c-0.4-8.8,0.3-17.7-1.9-26.3c-5.1-20.5-22.6-33.9-44.4-33.9
	C621.7,178.4,533.2,178.3,444.7,178.4L444.7,178.4z"/>
<path class="st0" d="M445.2,223.7h-248c-15.6,0-17.5,2-17.5,17.5c0,91.7,0,183.3,0,275c0,11.3,3.5,15,14.8,15H316
	c36.8,0,73.7,0,110.5,0c6.9,0,11.5-4,11.7-9.7c0.2-6.9-4.1-11.4-11.4-11.8c-2.2-0.1-4.3-0.1-6.5-0.1c-71.1,0-142.3,0-213.4,0.1
	c-4.1,0-5.6-1.1-5.5-5.3c0.2-13.3,0.1-26.7,0.1-40c0-71,0-142,0-213c0-3.8,0-6.5,5.4-6.5c158.6,0.1,317.3,0.1,475.9,0
	c4.7,0,6.3,1.2,6.2,6.1c-0.2,45-0.1,90,0,135c-0.2,2.8,0.1,5.7,0.8,8.4c1.6,5.3,6.5,8.4,12.4,7.6c4.9-0.6,7.8-4,8-9.8
	c0.1-3.5,0-7,0-10.5c0-48.8,0-97.7,0-146.5c0-8.1-3.2-11.5-11.4-11.9c-3.2-0.1-6.3,0.1-9.5,0.1L445.2,223.7z"/>
<path class="st0" d="M523.3,502.1l-1.3,1c-5-3.3-9.8-6.7-14.9-9.9c-11-7-22.6-9.3-34.5-2.8c-15.6,8.3-21.6,27.7-13.3,43.3
	c1.5,2.9,3.5,5.5,5.8,7.8c18.5,18.5,37.6,36.4,56.4,54.5c13.7,13.1,27.1,26.7,41.4,39.2c20.3,17.9,44,27.4,71.4,25.8
	c21-1.2,40.3-8.6,58.8-18.1c13-6.6,24.2-16.2,32.8-28c18.9-25.8,22.7-54.8,17.4-85.6c-2.7-15.7-9.1-30.3-14.5-45.1
	c-6-16.6-11.8-33.3-18.9-49.5c-7.1-16.1-28.3-25.9-46.2-13.8c-3.7,2.5-5.3,1.4-7.8-1.3c-12.5-13-28.3-14.1-42.5-2.8
	c-2.5,2-3.9,2-6.2-0.2c-11.8-11-24.3-11.8-37.5-2.4c-2.7,1.9-3.7,1.2-4.6-1.5c-1.7-4.9-3.4-9.7-5.3-14.6
	c-5.7-14.9-9.6-30.6-16.8-44.9c-6.2-12.2-16.8-18.7-30.9-18.1c-14.1,0.6-25.1,6.5-31.1,19.7c-4.7,10.4-3.3,20.9,0.3,31.1
	c11,30.9,22.2,61.7,33.4,92.6C517.6,486.7,520.5,494.4,523.3,502.1z"/>
<path class="st1" d="M429.8,672.3c35.5,0,70.9,0,106.4,0c7,0,9.9,2.4,10.3,8.1c0.5,6.6-2.7,9.9-9.9,9.9c-23.6,0-47.3,0-70.9,0h-139
	c-1.5,0-3,0-4.5,0c-6.7-0.3-9.2-2.7-9.2-9.1c0-6.2,2.7-8.9,9.4-8.9C358.2,672.2,394,672.2,429.8,672.3L429.8,672.3z"/>
<path class="st1" d="M724.1,548.6c0.4,25.5-5.5,48.8-26,65.9c-15.6,13-34.5,20-54.3,24c-27,5.5-50.2-2.6-69.7-21.1
	c-30.2-28.7-60-57.8-89.9-86.7c-3.1-3-6.3-6-6.4-10.9c-0.1-4.4,1.5-7.8,5.3-10.1c3.8-2.3,7.3-1.9,10.8,0.4
	c9.1,6.2,18.1,12.4,27.2,18.6c5.9,4,11.8,8.1,17.8,12.1c4.3,2.8,8.9,4.1,13.5,0.9c4.1-2.9,4.8-7.2,2.5-13.6
	c-14.1-39.3-28.3-78.7-42.4-118c-4-11.1-8.1-22.2-11.9-33.4c-2.8-8.3-1.6-12.7,3.6-16.6c7-5.3,16.5-3.6,20.4,4.3
	c6.2,12.9,10.1,26.8,15,40.2c8.3,22.8,16.3,45.8,24.6,68.7c1,2.8,2.3,5.6,3.9,8.1c2.7,4,7.6,5.3,12.5,3.5c4.6-1.7,6.2-5.4,5.7-10
	c-0.8-7-4.5-13.2-6.4-19.9c-1.2-4.2-2.7-8.2-3.8-12.4c-1.3-4.6-0.3-8.6,4-11.3c4.3-2.9,10-2.5,13.9,0.9c2.6,2.4,4.5,5.4,5.6,8.7
	c3.4,9.6,6.7,19.2,10.3,28.7c1.8,4.8,5.5,7,10.6,6.6c4.9-0.4,7.8-3.3,9.1-7.9c0.7-2.4-0.2-4.6-0.9-6.8c-1.7-5.8-3.7-11.4-5.4-17.2
	c-1.8-6.2-0.4-9.8,4.5-12.2c5.2-2.6,10.9-1.4,14.4,2.9c2.1,2.8,3.8,5.9,4.8,9.3c2.5,7.4,5,14.8,7.8,22.1c1.8,4.6,5.2,7.2,10.4,7
	c4.5-0.2,7.5-2.2,9.2-6.4c0.7-1.9,0.8-4,0.2-5.9c-1.1-3.5-2.1-7-3.3-10.5c-1.9-6-0.9-10,3.2-12.3c4.9-2.6,10.9-1.6,14.6,2.5
	c1.6,1.9,2.9,4.1,3.8,6.4c9.2,24.6,18.4,49.3,26.6,74.3C722.2,530.3,723.8,539.4,724.1,548.6z"/>
</svg>
